<?xml version="1.0" encoding="UTF-8"?>
<svg width="1296px" height="136px" viewBox="0 0 1296 136" version="1.1" xmlns="http://www.w3.org/2000/svg" xmlns:xlink="http://www.w3.org/1999/xlink">
    <!-- Generator: Sketch 52 (66869) - http://www.bohemiancoding.com/sketch -->
    <title>logos / paw+text / ua / svg / 1-raw</title>
    <desc>Created with Sketch.</desc>
    <g id="logos-/-paw+text-/-ua-/-svg-/-1-raw" stroke="none" stroke-width="1" fill="none" fill-rule="evenodd">
        <g id="monopaw" fill-rule="nonzero">
            <rect id="bounce" x="0" y="0" width="128" height="128"></rect>
            <path d="M39.586424,114.605914 C39.1338196,114.574655 38.6799682,114.549648 38.2273638,114.508387 C35.6912825,114.269571 33.365918,113.440593 31.3011439,111.941429 C27.7389098,109.354466 25.4609253,105.914767 24.5532227,101.586074 C24.2140811,99.9593752 24.1193209,98.3176726 24.222809,96.6609657 C24.3400124,94.7166796 24.7265341,92.8311597 25.3424751,90.9869012 C26.3262353,88.0435896 27.8099799,85.3728532 29.6877274,82.9109243 C31.1028956,81.0554127 32.7050905,79.3749493 34.470622,77.850779 C36.1226907,76.4228853 37.6226443,74.8462006 39.0278378,73.1769903 C40.795863,71.07266 42.3955641,68.842045 43.9753158,66.5964258 C45.3717814,64.6108783 46.7445569,62.6128273 48.2270548,60.6935481 C49.3417335,59.2456489 50.5175077,57.8515145 51.827941,56.5774131 C53.4675412,54.9857242 55.2767122,53.6378526 57.4088159,52.7638616 C59.0085171,52.1074306 60.6705605,51.7598347 62.3999335,51.7235747 C64.3549853,51.6785623 66.2863471,51.8723658 68.1877846,52.3387444 C71.0979191,53.0551919 73.6190382,54.4743332 75.7897941,56.5399028 C77.2747856,57.9590441 78.5316046,59.5644868 79.6998977,61.2449502 C80.9392609,63.0266915 82.0776297,64.8734507 83.252157,66.698954 C84.5763056,68.7545208 85.9428469,70.7775787 87.4702311,72.6906062 C88.9913811,74.5973819 90.6696335,76.356617 92.5024946,77.9658108 C94.7193837,79.9125976 96.6869039,82.079445 98.3626626,84.512616 C99.7915462,86.5994414 100.956099,88.8188033 101.769041,91.2169646 C102.402438,93.0849797 102.800181,94.9955065 102.901176,96.9698009 C103.057031,99.9681276 102.540838,102.835168 101.184271,105.532162 C99.928699,108.031601 98.1108001,110.038404 95.8278282,111.632594 C94.1495759,112.804167 92.339158,113.694413 90.345454,114.189549 C89.6397402,114.367098 88.9228047,114.494633 88.1983882,114.564652 C88.0973938,114.574655 88.00014,114.59341 87.9028861,114.608415 C87.8081259,114.662179 87.703391,114.622168 87.6036435,114.634672 C87.5213518,114.645925 87.4340727,114.608415 87.3555215,114.660929 C86.7370867,114.660929 86.1161583,114.660929 85.4977235,114.660929 C85.4241597,114.607164 85.3406211,114.644675 85.26207,114.634672 C85.189753,114.634672 85.1211766,114.634672 85.0501064,114.634672 C84.9915047,114.634672 84.9279157,114.634672 84.8705609,114.634672 C83.2858218,114.583408 81.747216,114.252066 80.2135975,113.895718 C77.6151741,113.28805 75.0678712,112.48908 72.4831631,111.828898 C70.3897116,111.296251 68.2788042,110.863632 66.1304916,110.617314 C64.6417595,110.446017 63.1492869,110.427262 61.6605549,110.478526 C60.4698186,110.518537 59.2878102,110.702337 58.1170235,110.921148 C55.8053742,111.357518 53.5398582,111.98144 51.2730953,112.601611 C48.8754138,113.261793 46.4777323,113.918224 44.0226959,114.320835 C43.0239737,114.48213 42.0240046,114.620918 41.0090733,114.610915 C40.8008503,114.608415 40.5938742,114.639673 40.3831575,114.634672 C40.115086,114.619668 39.850755,114.667181 39.586424,114.605914 Z M83.5134688,13.764765 C86.8550115,14.167376 89.4073017,15.8703456 91.3573661,18.5560861 C92.6939832,20.397844 93.5343562,22.4634135 94.0555371,24.6715224 C94.5006605,26.5732968 94.6689845,28.5038291 94.6053954,30.4568676 C94.4881921,34.0453571 93.647819,37.453797 92.0942511,40.6871885 C91.0182245,42.9278064 89.62924,44.9483635 87.8587211,46.6913441 C86.2814631,48.2405213 84.497229,49.4783626 82.414999,50.2498253 C80.9524507,50.7912246 79.4487565,51.0587984 77.8902012,50.9662729 C75.1920302,50.8099798 72.9015773,49.7346833 70.9764498,47.8566654 C69.3356027,46.2537234 68.2171834,44.315689 67.4428931,42.1700974 C66.9017627,40.6696837 66.5638679,39.1230072 66.3880629,37.5413211 C66.2658721,36.4572722 66.2172452,35.3719729 66.2521568,34.2866737 C66.3319549,31.7247172 66.7907936,29.2302794 67.6211918,26.8083616 C68.5027107,24.2301507 69.7520487,21.8532453 71.4577316,19.7276592 C72.8928494,17.9396662 74.5698549,16.4279993 76.5822616,15.3114414 C78.0610189,14.4899649 79.6357832,13.9585684 81.3215166,13.7672657 C82.2474919,13.671025 82.6209703,13.6780961 83.5134688,13.764765 Z M11.1761601,52.9495722 C11.2285276,51.9267902 11.4118137,50.9227634 11.6798852,49.934991 C12.1985724,48.0157118 13.0476734,46.2664794 14.3705751,44.7685664 C15.8493324,43.0968555 17.6772061,42.0153072 19.8666647,41.5789369 C21.6446646,41.2263397 23.3989745,41.3776314 25.1233601,41.9102783 C27.1058425,42.5241976 28.8589055,43.5682354 30.4174608,44.9273602 C32.8388324,47.0316904 34.5744396,49.6211545 35.7763975,52.5844716 C36.404807,54.1361494 36.8399556,55.7428424 37.0805966,57.3995493 C37.1977999,58.203521 37.2539079,59.012494 37.2701169,59.8252181 C37.2987943,61.3681436 37.1441856,62.8860621 36.7626513,64.3789738 C36.2539388,66.370773 35.3973568,68.1837729 34.0320623,69.7354508 C32.4647791,71.5159417 30.5109741,72.6237472 28.1694006,73.0051023 C26.4512492,73.2851796 24.7617752,73.0963775 23.1084597,72.5612299 C20.8853364,71.8372803 18.9801584,70.5944376 17.301906,68.9852439 C15.6647995,67.4198122 14.3643409,65.6018109 13.3506565,63.5800035 C12.3569217,61.5969567 11.6711573,59.5063802 11.3407436,57.3070238 C11.2833887,56.9181665 11.2360087,56.5293093 11.1836412,56.1417024 C11.1424953,55.9641535 11.1587043,55.7828535 11.1163116,55.6065549 C11.0963621,55.5327845 11.1075837,55.4627652 11.1038432,55.3864942 C11.0901279,55.2927183 11.1325206,55.1926907 11.0751658,55.0989149 C11.0751658,54.6237839 11.0751658,54.1499032 11.0751658,53.6735219 C11.1636917,53.543486 11.1200521,53.398446 11.1300269,53.2596577 C11.137508,53.1558791 11.1113242,53.0458488 11.1761601,52.9495722 Z M33.1325622,30.4595363 C33.1437838,27.6300061 33.5452676,25.0780525 34.4891287,22.6223753 C35.2010768,20.7656133 36.1786027,19.0676451 37.5401566,17.6059921 C39.0064455,16.028057 40.7482869,14.896495 42.8492195,14.3638481 C44.9501521,13.8287006 47.0149262,13.9812426 49.0447887,14.7176957 C50.8327634,15.367875 52.3925655,16.3931577 53.7778095,17.6872645 C55.9897112,19.7503334 57.5732034,22.2410202 58.7015975,25.03304 C59.418533,26.8085296 59.9122833,28.6440357 60.1940701,30.5358074 C60.3536662,31.6086032 60.4459326,32.6901514 60.4683758,33.7792017 C60.4920659,35.1495796 60.4060336,36.5149561 60.1803548,37.8678291 C59.7115414,40.6948586 58.7552118,43.3280847 57.0495289,45.6562267 C55.9884644,47.1003749 54.7004743,48.2944541 53.1194757,49.1546913 C51.3526974,50.1149561 49.4612347,50.5163168 47.4600496,50.361274 C45.6508786,50.2224858 43.982601,49.6298223 42.4265393,48.7045672 C40.3966769,47.4992348 38.7533361,45.8737866 37.385548,43.9607591 C35.7634036,41.6888827 34.6487248,39.1769401 33.9430109,36.4774457 C33.5564892,35.0007885 33.3096141,33.4991245 33.1973981,31.9762045 C33.1525117,31.404797 33.1138595,30.8296384 33.1325622,30.4595363 Z M116.905731,54.598945 C116.905731,54.707725 116.905731,54.8177553 116.905731,54.9277857 C116.781046,57.656038 116.052889,60.2242461 114.877115,62.6736715 C113.951956,64.5929507 112.771195,66.3421831 111.309893,67.8926106 C109.43464,69.8856601 107.258896,71.4398387 104.671695,72.3725959 C103.121867,72.9315 101.525907,73.2065758 99.8763316,73.1153007 C97.4412447,72.9777628 95.3153753,72.0925187 93.5274006,70.4270594 C92.051137,69.0504298 91.0773516,67.357463 90.4639042,65.4519376 C89.9115522,63.7439666 89.6883671,61.9834812 89.7444751,60.1904868 C89.865419,56.2481497 91.1085227,52.6646616 93.2618228,49.3850073 C93.988733,48.2747012 94.8228718,47.2494184 95.758005,46.3116599 C97.6818857,44.38988 99.881319,42.9119724 102.485977,42.0742415 C103.967228,41.6016111 105.480897,41.3853015 107.031971,41.5065849 C109.400975,41.6903856 111.466996,42.5893835 113.200109,44.2285855 C114.763652,45.7077433 115.749906,47.5344971 116.345897,49.5850625 C116.675064,50.7178748 116.867078,51.8769444 116.905731,53.0585202 C116.905731,53.1685506 116.905731,53.2798313 116.905731,53.3898616 C116.893262,53.7924726 116.894509,54.1950836 116.905731,54.598945 Z" id="black" fill="#000000" transform="translate(63.990448, 64.179171) rotate(10.000000) translate(-63.990448, -64.179171) "></path>
        </g>
        <path d="M251.84,108 L231.36,108 L231.36,37.6 L200,37.6 L200,108 L179.52,108 L179.52,18.4 L251.84,18.4 L251.84,108 Z M275.904,100.96 C270.101304,95.1573043 267.2,87.9040435 267.2,79.2 C267.2,70.4959565 270.101304,63.2426957 275.904,57.44 C281.706696,51.7226381 289.471951,48.864 299.2,48.864 C308.928049,48.864 316.650638,51.7226381 322.368,57.44 C328.256029,63.1573619 331.2,70.4106227 331.2,79.2 C331.2,87.9893773 328.256029,95.2426381 322.368,100.96 C316.650638,106.677362 308.928049,109.536 299.2,109.536 C289.471951,109.536 281.706696,106.677362 275.904,100.96 Z M287.68,79.2 C287.68,82.7840179 288.767989,85.7493216 290.944,88.096 C293.120011,90.4426784 295.871983,91.616 299.2,91.616 C302.61335,91.616 305.386656,90.4853446 307.52,88.224 C309.653344,85.9626554 310.72,82.9546854 310.72,79.2 C310.72,75.6159821 309.632011,72.6506784 307.456,70.304 C305.279989,67.9573216 302.528017,66.784 299.2,66.784 C295.871983,66.784 293.120011,67.9146554 290.944,70.176 C288.767989,72.4373446 287.68,75.4453146 287.68,79.2 Z M361.28,108 L342.08,108 L342.08,50.4 L361.28,50.4 L361.28,77.024 L376.896,50.4 L400.96,50.4 L382.272,77.792 L403.776,108 L378.944,108 L361.28,81.12 L361.28,108 Z M447.424,50.4 L469.312,50.4 L446.912,108 C442.81598,118.069384 439.146683,124.853316 435.904,128.352 C432.661317,131.850684 428.778689,133.6 424.256,133.6 C419.391976,133.6 414.826688,131.808018 410.56,128.224 L416.704,113.76 C418.666676,115.12534 420.501325,115.808 422.208,115.808 C424.597345,115.808 426.431994,114.229349 427.712,111.072 L428.992,108 L403.264,50.4 L426.432,50.4 L436.288,76.768 C436.97067,78.6453427 437.695996,81.2906496 438.464,84.704 C438.890669,80.8639808 439.359997,78.1760077 439.872,76.64 L447.424,50.4 Z M532.672,108 L513.472,108 L513.472,68.32 L495.552,68.32 L495.552,108 L476.352,108 L476.352,50.4 L532.672,50.4 L532.672,108 Z M565.952,108 L546.752,108 L546.752,50.4 L565.952,50.4 L565.952,77.024 L581.568,50.4 L605.632,50.4 L586.944,77.792 L608.448,108 L583.616,108 L565.952,81.12 L565.952,108 Z M621.12,68.448 L616.384,54.496 C622.528031,50.7413146 629.653293,48.864 637.76,48.864 C646.122708,48.864 652.202648,50.8693133 656,54.88 C659.797352,58.8906867 661.696,65.0346253 661.696,73.312 L661.696,108 L645.056,108 L645.056,102.752 C642.239986,106.762687 637.20537,108.768 629.952,108.768 C624.490639,108.768 620.096017,107.146683 616.768,103.904 C613.439983,100.661317 611.776,96.2240282 611.776,90.592 C611.776,84.533303 613.674648,79.8400166 617.472,76.512 C621.269352,73.1839834 626.282636,71.52 632.512,71.52 C637.376024,71.52 641.130653,72.586656 643.776,74.72 C644.202669,68.1493005 641.557362,64.864 635.84,64.864 C631.914647,64.864 627.008029,66.0586547 621.12,68.448 Z M636.48,92.768 C639.89335,92.768 642.325326,91.7866765 643.776,89.824 L643.776,86.24 C641.983991,84.9599936 639.552015,84.32 636.48,84.32 C634.858659,84.32 633.536005,84.7039962 632.512,85.472 C631.487995,86.2400038 630.976,87.3066598 630.976,88.672 C630.976,89.9520064 631.487995,90.954663 632.512,91.68 C633.536005,92.405337 634.858659,92.768 636.48,92.768 Z M730.816,50.4 L750.016,50.4 L750.016,108 L730.816,108 L730.816,90.592 C727.231982,92.2133414 722.965358,93.024 718.016,93.024 C710.677297,93.024 705.322684,91.1040192 701.952,87.264 C698.581316,83.4239808 696.896,77.6213722 696.896,69.856 L696.896,50.4 L717.376,50.4 L717.376,67.296 C717.376,72.5013594 719.42398,75.104 723.52,75.104 C726.762683,75.104 729.194659,74.6773376 730.816,73.824 L730.816,50.4 Z M770.24,68.448 L765.504,54.496 C771.648031,50.7413146 778.773293,48.864 786.88,48.864 C795.242708,48.864 801.322648,50.8693133 805.12,54.88 C808.917352,58.8906867 810.816,65.0346253 810.816,73.312 L810.816,108 L794.176,108 L794.176,102.752 C791.359986,106.762687 786.32537,108.768 779.072,108.768 C773.610639,108.768 769.216017,107.146683 765.888,103.904 C762.559983,100.661317 760.896,96.2240282 760.896,90.592 C760.896,84.533303 762.794648,79.8400166 766.592,76.512 C770.389352,73.1839834 775.402636,71.52 781.632,71.52 C786.496024,71.52 790.250653,72.586656 792.896,74.72 C793.322669,68.1493005 790.677362,64.864 784.96,64.864 C781.034647,64.864 776.128029,66.0586547 770.24,68.448 Z M785.6,92.768 C789.01335,92.768 791.445326,91.7866765 792.896,89.824 L792.896,86.24 C791.103991,84.9599936 788.672015,84.32 785.6,84.32 C783.978659,84.32 782.656005,84.7039962 781.632,85.472 C780.607995,86.2400038 780.096,87.3066598 780.096,88.672 C780.096,89.9520064 780.607995,90.954663 781.632,91.68 C782.656005,92.405337 783.978659,92.768 785.6,92.768 Z M866.624,85.216 L875.584,99.296 C870.549308,106.122701 862.69872,109.536 852.032,109.536 C842.474619,109.536 834.794696,106.762694 828.992,101.216 C823.274638,95.7546394 820.416,88.4160461 820.416,79.2 C820.416,70.5812902 823.231972,63.4133619 828.864,57.696 C834.666696,51.8079706 842.005289,48.864 850.88,48.864 C861.376052,48.864 869.226641,51.5946394 874.432,57.056 L865.6,72.16 C862.015982,68.5759821 857.920023,66.784 853.312,66.784 C849.89865,66.784 846.976012,67.9359885 844.544,70.24 C842.111988,72.5440115 840.896,75.5306483 840.896,79.2 C840.896,82.8693517 842.175987,85.8559885 844.736,88.16 C847.46668,90.4640115 850.410651,91.616 853.568,91.616 C858.261357,91.616 862.613313,89.482688 866.624,85.216 Z M897.856,69.6 L881.216,69.6 L881.216,50.4 L933.696,50.4 L933.696,69.6 L917.056,69.6 L917.056,108 L897.856,108 L897.856,69.6 Z M982.976,77.92 L962.496,108 L943.296,108 L943.296,50.4 L962.496,50.4 L962.496,80.48 L982.976,50.4 L1002.176,50.4 L1002.176,108 L982.976,108 L982.976,77.92 Z M1073.216,108 L1054.016,108 L1054.016,88.16 L1035.456,88.16 L1035.456,108 L1016.256,108 L1016.256,50.4 L1035.456,50.4 L1035.456,70.24 L1054.016,70.24 L1054.016,50.4 L1073.216,50.4 L1073.216,108 Z M1093.44,68.448 L1088.704,54.496 C1094.84803,50.7413146 1101.97329,48.864 1110.08,48.864 C1118.44271,48.864 1124.52265,50.8693133 1128.32,54.88 C1132.11735,58.8906867 1134.016,65.0346253 1134.016,73.312 L1134.016,108 L1117.376,108 L1117.376,102.752 C1114.55999,106.762687 1109.52537,108.768 1102.272,108.768 C1096.81064,108.768 1092.41602,107.146683 1089.088,103.904 C1085.75998,100.661317 1084.096,96.2240282 1084.096,90.592 C1084.096,84.533303 1085.99465,79.8400166 1089.792,76.512 C1093.58935,73.1839834 1098.60264,71.52 1104.832,71.52 C1109.69602,71.52 1113.45065,72.586656 1116.096,74.72 C1116.52267,68.1493005 1113.87736,64.864 1108.16,64.864 C1104.23465,64.864 1099.32803,66.0586547 1093.44,68.448 Z M1108.8,92.768 C1112.21335,92.768 1114.64533,91.7866765 1116.096,89.824 L1116.096,86.24 C1114.30399,84.9599936 1111.87202,84.32 1108.8,84.32 C1107.17866,84.32 1105.85601,84.7039962 1104.832,85.472 C1103.80799,86.2400038 1103.296,87.3066598 1103.296,88.672 C1103.296,89.9520064 1103.80799,90.954663 1104.832,91.68 C1105.85601,92.405337 1107.17866,92.768 1108.8,92.768 Z M1166.016,108 L1146.816,108 L1146.816,50.4 L1164.096,50.4 L1181.376,69.984 L1197.376,50.4 L1214.144,50.4 L1214.144,108 L1194.944,108 L1194.944,79.712 L1180.992,95.712 L1180.608,95.712 L1166.016,79.712 L1166.016,108 Z M1267.904,77.92 L1247.424,108 L1228.224,108 L1228.224,50.4 L1247.424,50.4 L1247.424,80.48 L1267.904,50.4 L1287.104,50.4 L1287.104,108 L1267.904,108 L1267.904,77.92 Z" id="Покупка-частинами" fill="#0D0D0D"></path>
    </g>
</svg>